<mxfile host="65bd71144e">
    <diagram id="2Ae4KAU82T-rwXzPxonI" name="Page-1">
        <mxGraphModel dx="1027" dy="727" grid="1" gridSize="10" guides="1" tooltips="1" connect="1" arrows="1" fold="1" page="1" pageScale="1" pageWidth="827" pageHeight="1169" math="0" shadow="0">
            <root>
                <mxCell id="0"/>
                <mxCell id="1" parent="0"/>
                <mxCell id="4" value="" style="ellipse;html=1;shape=startState;fillColor=#000000;strokeColor=#ff0000;" vertex="1" parent="1">
                    <mxGeometry x="384" y="10" width="30" height="30" as="geometry"/>
                </mxCell>
                <mxCell id="5" value="" style="edgeStyle=orthogonalEdgeStyle;html=1;verticalAlign=bottom;endArrow=open;endSize=8;strokeColor=#ff0000;entryX=0.5;entryY=0;entryDx=0;entryDy=0;" edge="1" source="4" parent="1" target="6">
                    <mxGeometry relative="1" as="geometry">
                        <mxPoint x="399" y="100" as="targetPoint"/>
                    </mxGeometry>
                </mxCell>
                <mxCell id="6" value="Connection du client" style="rounded=1;whiteSpace=wrap;html=1;arcSize=40;fontColor=#000000;fillColor=#ffffc0;strokeColor=#ff0000;" vertex="1" parent="1">
                    <mxGeometry x="339" y="80" width="120" height="40" as="geometry"/>
                </mxCell>
                <mxCell id="7" value="" style="edgeStyle=orthogonalEdgeStyle;html=1;verticalAlign=bottom;endArrow=open;endSize=8;strokeColor=#ff0000;entryX=0.5;entryY=0;entryDx=0;entryDy=0;" edge="1" source="6" parent="1" target="8">
                    <mxGeometry relative="1" as="geometry">
                        <mxPoint x="399" y="200" as="targetPoint"/>
                    </mxGeometry>
                </mxCell>
                <mxCell id="8" value="Parcourir le catalogue" style="rounded=1;whiteSpace=wrap;html=1;arcSize=40;fontColor=#000000;fillColor=#ffffc0;strokeColor=#ff0000;" vertex="1" parent="1">
                    <mxGeometry x="339" y="160" width="120" height="40" as="geometry"/>
                </mxCell>
                <mxCell id="9" value="" style="edgeStyle=orthogonalEdgeStyle;html=1;verticalAlign=bottom;endArrow=open;endSize=8;strokeColor=#ff0000;entryX=0.5;entryY=0;entryDx=0;entryDy=0;" edge="1" source="8" parent="1" target="10">
                    <mxGeometry relative="1" as="geometry">
                        <mxPoint x="399" y="300" as="targetPoint"/>
                    </mxGeometry>
                </mxCell>
                <mxCell id="10" value="Ajouter des produits au panier" style="rounded=1;whiteSpace=wrap;html=1;arcSize=40;fontColor=#000000;fillColor=#ffffc0;strokeColor=#ff0000;" vertex="1" parent="1">
                    <mxGeometry x="339" y="240" width="120" height="40" as="geometry"/>
                </mxCell>
                <mxCell id="11" value="" style="edgeStyle=orthogonalEdgeStyle;html=1;verticalAlign=bottom;endArrow=open;endSize=8;strokeColor=#ff0000;entryX=0.5;entryY=0;entryDx=0;entryDy=0;" edge="1" source="10" parent="1" target="12">
                    <mxGeometry relative="1" as="geometry">
                        <mxPoint x="399" y="400" as="targetPoint"/>
                    </mxGeometry>
                </mxCell>
                <mxCell id="12" value="Verifier le panier" style="rounded=1;whiteSpace=wrap;html=1;arcSize=40;fontColor=#000000;fillColor=#ffffc0;strokeColor=#ff0000;" vertex="1" parent="1">
                    <mxGeometry x="339" y="320" width="120" height="40" as="geometry"/>
                </mxCell>
                <mxCell id="13" value="" style="edgeStyle=orthogonalEdgeStyle;html=1;verticalAlign=bottom;endArrow=open;endSize=8;strokeColor=#ff0000;entryX=0.5;entryY=0;entryDx=0;entryDy=0;" edge="1" source="12" parent="1" target="14">
                    <mxGeometry relative="1" as="geometry">
                        <mxPoint x="399" y="500" as="targetPoint"/>
                    </mxGeometry>
                </mxCell>
                <mxCell id="14" value="Choix de paiment" style="rounded=1;whiteSpace=wrap;html=1;arcSize=40;fontColor=#000000;fillColor=#ffffc0;strokeColor=#ff0000;" vertex="1" parent="1">
                    <mxGeometry x="339" y="400" width="120" height="40" as="geometry"/>
                </mxCell>
                <mxCell id="15" value="" style="edgeStyle=orthogonalEdgeStyle;html=1;verticalAlign=bottom;endArrow=open;endSize=8;strokeColor=#ff0000;entryX=0.5;entryY=0;entryDx=0;entryDy=0;" edge="1" source="14" parent="1" target="16">
                    <mxGeometry relative="1" as="geometry">
                        <mxPoint x="399" y="600" as="targetPoint"/>
                    </mxGeometry>
                </mxCell>
                <mxCell id="16" value="Condition" style="rhombus;whiteSpace=wrap;html=1;fillColor=#ffffc0;strokeColor=#ff0000;" vertex="1" parent="1">
                    <mxGeometry x="359" y="480" width="80" height="40" as="geometry"/>
                </mxCell>
                <mxCell id="17" value="" style="edgeStyle=orthogonalEdgeStyle;html=1;align=left;verticalAlign=bottom;endArrow=open;endSize=8;strokeColor=#ff0000;entryX=0.5;entryY=0;entryDx=0;entryDy=0;" edge="1" source="16" parent="1" target="23">
                    <mxGeometry x="-0.5714" y="10" relative="1" as="geometry">
                        <mxPoint x="520" y="680" as="targetPoint"/>
                        <mxPoint as="offset"/>
                    </mxGeometry>
                </mxCell>
                <mxCell id="18" value="" style="edgeStyle=orthogonalEdgeStyle;html=1;align=left;verticalAlign=top;endArrow=open;endSize=8;strokeColor=#ff0000;entryX=0.5;entryY=0;entryDx=0;entryDy=0;" edge="1" source="16" parent="1" target="19">
                    <mxGeometry x="-0.4286" y="-30" relative="1" as="geometry">
                        <mxPoint x="280" y="680" as="targetPoint"/>
                        <mxPoint as="offset"/>
                    </mxGeometry>
                </mxCell>
                <mxCell id="19" value="Paiment en ligne" style="rounded=1;whiteSpace=wrap;html=1;arcSize=40;fontColor=#000000;fillColor=#ffffc0;strokeColor=#ff0000;" vertex="1" parent="1">
                    <mxGeometry x="219" y="520" width="120" height="40" as="geometry"/>
                </mxCell>
                <mxCell id="20" value="" style="edgeStyle=orthogonalEdgeStyle;html=1;verticalAlign=bottom;endArrow=open;endSize=8;strokeColor=#ff0000;entryX=0.5;entryY=0;entryDx=0;entryDy=0;" edge="1" source="19" parent="1" target="25">
                    <mxGeometry relative="1" as="geometry">
                        <mxPoint x="279" y="780" as="targetPoint"/>
                    </mxGeometry>
                </mxCell>
                <mxCell id="23" value="Paiment en différé" style="rounded=1;whiteSpace=wrap;html=1;arcSize=40;fontColor=#000000;fillColor=#ffffc0;strokeColor=#ff0000;" vertex="1" parent="1">
                    <mxGeometry x="459" y="520" width="120" height="40" as="geometry"/>
                </mxCell>
                <mxCell id="24" value="" style="edgeStyle=orthogonalEdgeStyle;html=1;verticalAlign=bottom;endArrow=open;endSize=8;strokeColor=#ff0000;" edge="1" source="23" parent="1" target="37">
                    <mxGeometry relative="1" as="geometry">
                        <mxPoint x="519" y="780" as="targetPoint"/>
                    </mxGeometry>
                </mxCell>
                <mxCell id="25" value="Calcul le montant total" style="rounded=1;whiteSpace=wrap;html=1;arcSize=40;fontColor=#000000;fillColor=#ffffc0;strokeColor=#ff0000;" vertex="1" parent="1">
                    <mxGeometry x="219" y="600" width="120" height="40" as="geometry"/>
                </mxCell>
                <mxCell id="26" value="" style="edgeStyle=orthogonalEdgeStyle;html=1;verticalAlign=bottom;endArrow=open;endSize=8;strokeColor=#ff0000;entryX=0.5;entryY=0;entryDx=0;entryDy=0;" edge="1" source="25" parent="1" target="27">
                    <mxGeometry relative="1" as="geometry">
                        <mxPoint x="279" y="880" as="targetPoint"/>
                    </mxGeometry>
                </mxCell>
                <mxCell id="27" value="Confirmer la commande" style="rounded=1;whiteSpace=wrap;html=1;arcSize=40;fontColor=#000000;fillColor=#ffffc0;strokeColor=#ff0000;" vertex="1" parent="1">
                    <mxGeometry x="219" y="680" width="120" height="40" as="geometry"/>
                </mxCell>
                <mxCell id="28" value="" style="edgeStyle=orthogonalEdgeStyle;html=1;verticalAlign=bottom;endArrow=open;endSize=8;strokeColor=#ff0000;entryX=0.5;entryY=0;entryDx=0;entryDy=0;" edge="1" source="27" parent="1" target="29">
                    <mxGeometry relative="1" as="geometry">
                        <mxPoint x="279" y="980" as="targetPoint"/>
                    </mxGeometry>
                </mxCell>
                <mxCell id="29" value="Soumettre la commande" style="rounded=1;whiteSpace=wrap;html=1;arcSize=40;fontColor=#000000;fillColor=#ffffc0;strokeColor=#ff0000;" vertex="1" parent="1">
                    <mxGeometry x="219" y="760" width="120" height="40" as="geometry"/>
                </mxCell>
                <mxCell id="30" value="" style="edgeStyle=orthogonalEdgeStyle;html=1;verticalAlign=bottom;endArrow=open;endSize=8;strokeColor=#ff0000;entryX=0.5;entryY=0;entryDx=0;entryDy=0;" edge="1" source="29" parent="1" target="31">
                    <mxGeometry relative="1" as="geometry">
                        <mxPoint x="279" y="860" as="targetPoint"/>
                    </mxGeometry>
                </mxCell>
                <mxCell id="31" value="Enregistrer la commande" style="rounded=1;whiteSpace=wrap;html=1;arcSize=40;fontColor=#000000;fillColor=#ffffc0;strokeColor=#ff0000;" vertex="1" parent="1">
                    <mxGeometry x="219" y="840" width="120" height="40" as="geometry"/>
                </mxCell>
                <mxCell id="32" value="" style="edgeStyle=orthogonalEdgeStyle;html=1;verticalAlign=bottom;endArrow=open;endSize=8;strokeColor=#ff0000;entryX=0.5;entryY=0;entryDx=0;entryDy=0;" edge="1" source="31" parent="1" target="33">
                    <mxGeometry relative="1" as="geometry">
                        <mxPoint x="279" y="960" as="targetPoint"/>
                    </mxGeometry>
                </mxCell>
                <mxCell id="33" value="Mettre a jour les stocks" style="rounded=1;whiteSpace=wrap;html=1;arcSize=40;fontColor=#000000;fillColor=#ffffc0;strokeColor=#ff0000;" vertex="1" parent="1">
                    <mxGeometry x="219" y="920" width="120" height="40" as="geometry"/>
                </mxCell>
                <mxCell id="34" value="" style="edgeStyle=orthogonalEdgeStyle;html=1;verticalAlign=bottom;endArrow=open;endSize=8;strokeColor=#ff0000;entryX=0.5;entryY=0;entryDx=0;entryDy=0;" edge="1" source="33" parent="1" target="35">
                    <mxGeometry relative="1" as="geometry">
                        <mxPoint x="280" y="1000" as="targetPoint"/>
                    </mxGeometry>
                </mxCell>
                <mxCell id="35" value="Generer un bon de livraison et facture" style="rounded=1;whiteSpace=wrap;html=1;arcSize=40;fontColor=#000000;fillColor=#ffffc0;strokeColor=#ff0000;" vertex="1" parent="1">
                    <mxGeometry x="219" y="1000" width="120" height="40" as="geometry"/>
                </mxCell>
                <mxCell id="36" value="" style="edgeStyle=orthogonalEdgeStyle;html=1;verticalAlign=bottom;endArrow=open;endSize=8;strokeColor=#ff0000;entryX=0.25;entryY=0.5;entryDx=0;entryDy=0;entryPerimeter=0;" edge="1" source="35" parent="1" target="38">
                    <mxGeometry relative="1" as="geometry">
                        <mxPoint x="279" y="1080" as="targetPoint"/>
                    </mxGeometry>
                </mxCell>
                <mxCell id="37" value="Generer une facture ulterieure" style="rounded=1;whiteSpace=wrap;html=1;arcSize=40;fontColor=#000000;fillColor=#ffffc0;strokeColor=#ff0000;" vertex="1" parent="1">
                    <mxGeometry x="459" y="850" width="120" height="40" as="geometry"/>
                </mxCell>
                <mxCell id="38" value="" style="shape=line;html=1;strokeWidth=6;strokeColor=#ff0000;" vertex="1" parent="1">
                    <mxGeometry x="299" y="1080" width="200" height="10" as="geometry"/>
                </mxCell>
                <mxCell id="39" value="" style="edgeStyle=orthogonalEdgeStyle;html=1;verticalAlign=bottom;endArrow=open;endSize=8;strokeColor=#ff0000;entryX=0.5;entryY=0;entryDx=0;entryDy=0;" edge="1" source="38" parent="1" target="42">
                    <mxGeometry relative="1" as="geometry">
                        <mxPoint x="399" y="1190" as="targetPoint"/>
                    </mxGeometry>
                </mxCell>
                <mxCell id="41" value="" style="edgeStyle=orthogonalEdgeStyle;html=1;verticalAlign=bottom;endArrow=open;endSize=8;strokeColor=#ff0000;exitX=0.5;exitY=1;exitDx=0;exitDy=0;entryX=0.75;entryY=0.5;entryDx=0;entryDy=0;entryPerimeter=0;" edge="1" source="37" parent="1" target="38">
                    <mxGeometry relative="1" as="geometry">
                        <mxPoint x="510" y="1040" as="targetPoint"/>
                        <mxPoint x="510" y="980" as="sourcePoint"/>
                    </mxGeometry>
                </mxCell>
                <mxCell id="42" value="" style="ellipse;html=1;shape=endState;fillColor=#000000;strokeColor=#ff0000;" vertex="1" parent="1">
                    <mxGeometry x="384" y="1130" width="30" height="30" as="geometry"/>
                </mxCell>
            </root>
        </mxGraphModel>
    </diagram>
</mxfile>